<svg xmlns="http://www.w3.org/2000/svg" width="100" height="92" viewBox="0 0 100 92" fill="none">
<path d="M11.8691 25.0751C11.8691 23.7769 12.9231 22.7246 14.2232 22.7246C15.5234 22.7246 16.5773 23.7769 16.5773 25.0751V63.4676C16.5773 64.7656 15.5234 65.8181 14.2232 65.8181C12.9231 65.8181 11.8691 64.7656 11.8691 63.4676V25.0751Z" fill="black"/>
<path d="M11.8691 11.7568C11.8691 10.4586 12.9231 9.40625 14.2232 9.40625C15.5234 9.40625 16.5773 10.4586 16.5773 11.7568V18.8085C16.5773 20.1066 15.5234 21.159 14.2232 21.159C12.9231 21.159 11.8691 20.1066 11.8691 18.8085V11.7568Z" fill="black"/>
<path d="M23.6387 8.61227C23.6387 7.31408 24.6926 6.26172 25.9928 6.26172C27.2929 6.26172 28.3469 7.31408 28.3469 8.61227V17.2309C28.3469 18.5291 27.2929 19.5815 25.9928 19.5815C24.6926 19.5815 23.6387 18.5291 23.6387 17.2309V8.61227Z" fill="black"/>
<path d="M35.4082 4.69821C35.4082 3.40005 36.4621 2.34766 37.7623 2.34766C39.0625 2.34766 40.1164 3.40005 40.1164 4.69821V14.8839C40.1164 16.1821 39.0625 17.2345 37.7623 17.2345C36.4621 17.2345 35.4082 16.1821 35.4082 14.8839V4.69821Z" fill="black"/>
<path d="M23.6387 32.1279C23.6387 30.8297 24.6926 29.7773 25.9928 29.7773C27.2929 29.7773 28.3469 30.8297 28.3469 32.1279V70.5202C28.3469 71.8184 27.2929 72.8707 25.9928 72.8707C24.6926 72.8707 23.6387 71.8184 23.6387 70.5202V32.1279Z" fill="black"/>
<path d="M35.4082 36.8232C35.4082 35.525 36.4621 34.4727 37.7623 34.4727C39.0625 34.4727 40.1164 35.525 40.1164 36.8232V76.7826C40.1164 78.0808 39.0625 79.1331 37.7623 79.1331C36.4621 79.1331 35.4082 78.0808 35.4082 76.7826V36.8232Z" fill="black"/>
<path d="M47.1777 2.35055C47.1777 1.05237 48.2317 0 49.5318 0C50.832 0 51.8859 1.05238 51.8859 2.35055V85.4033C51.8859 86.7015 50.832 87.7538 49.5318 87.7538C48.2317 87.7538 47.1777 86.7015 47.1777 85.4033V2.35055Z" fill="black"/>
<path d="M58.9473 4.69821C58.9473 3.40002 60.0012 2.34766 61.3014 2.34766C62.6015 2.34766 63.6554 3.40005 63.6554 4.69821V43.8741C63.6554 45.1724 62.6015 46.2247 61.3014 46.2247C60.0012 46.2247 58.9473 45.1724 58.9473 43.8741V4.69821Z" fill="black"/>
<path d="M70.7168 7.83688C70.7168 6.53872 71.7707 5.48633 73.0709 5.48633C74.3711 5.48633 75.425 6.53872 75.425 7.83688V47.0127C75.425 48.3109 74.3711 49.3632 73.0709 49.3632C71.7707 49.3632 70.7168 48.3109 70.7168 47.0127V7.83688Z" fill="black"/>
<path d="M82.4927 11.7568C82.4927 10.4586 83.5466 9.40625 84.8468 9.40625C86.1469 9.40625 87.2009 10.4586 87.2009 11.7568V50.1491C87.2009 51.4473 86.1469 52.4996 84.8468 52.4996C83.5466 52.4996 82.4927 51.4473 82.4927 50.1491V11.7568Z" fill="black"/>
<path d="M58.9473 66.6006C58.9473 65.3023 60.0012 64.25 61.3014 64.25C62.6015 64.25 63.6554 65.3023 63.6554 66.6006V76.7862C63.6554 78.0844 62.6015 79.1367 61.3014 79.1367C60.0012 79.1367 58.9473 78.0844 58.9473 76.7862V66.6006Z" fill="black"/>
<path d="M69.9426 61.8935C69.9426 60.5953 70.9966 59.543 72.2967 59.543C73.5969 59.543 74.6508 60.5953 74.6508 61.8935V71.2957C74.6508 72.5939 73.5969 73.6463 72.2967 73.6463C70.9966 73.6463 69.9426 72.5939 69.9426 71.2957V61.8935Z" fill="black"/>
<path d="M81.7058 57.1943C81.7058 55.8961 82.7597 54.8438 84.0599 54.8438C85.3601 54.8438 86.414 55.8961 86.414 57.1943V64.246C86.414 65.5442 85.3601 66.5965 84.0599 66.5965C82.7597 66.5965 81.7058 65.5442 81.7058 64.246V57.1943Z" fill="black"/>
</svg>